<svg xmlns="http://www.w3.org/2000/svg" viewBox="0 0 24 24">
  <path d="M12 6.5a5.5 5.5 0 1 0 0 11 5.5 5.5 0 0 0 0-11Zm0 9.4a3.9 3.9 0 1 1 0-7.8 3.9 3.9 0 0 1 0 7.8ZM12 1.5a.8.8 0 0 1 .8.8v1.9a.8.8 0 0 1-1.6 0V2.3a.8.8 0 0 1 .8-.8Zm0 18.4a.8.8 0 0 1 .8.8v1.8a.8.8 0 0 1-1.6 0v-1.8a.8.8 0 0 1 .8-.8ZM3.8 11.2a.8.8 0 0 1 0 1.6H2a.8.8 0 1 1 0-1.6h1.8Zm18.2 0a.8.8 0 1 1 0 1.6h-1.8a.8.8 0 0 1 0-1.6H22ZM5.2 4.1a.8.8 0 0 1 1.1 0l1.3 1.3a.8.8 0 1 1-1.1 1.1L5.2 5.2a.8.8 0 0 1 0-1.1Zm12.2 12.2a.8.8 0 0 1 1.1 0l1.3 1.3a.8.8 0 0 1-1.1 1.1l-1.3-1.3a.8.8 0 0 1 0-1.1ZM19.8 4.1a.8.8 0 0 1 0 1.1l-1.3 1.3a.8.8 0 1 1-1.1-1.1l1.3-1.3a.8.8 0 0 1 1.1 0ZM7.6 16.3a.8.8 0 0 1 0 1.1l-1.3 1.3a.8.8 0 0 1-1.1-1.1l1.3-1.3a.8.8 0 0 1 1.1 0Z" />
</svg>
