<svg xmlns="http://www.w3.org/2000/svg" xmlns:xlink="http://www.w3.org/1999/xlink" width="2000" zoomAndPan="magnify" viewBox="0 0 1500 1499.999933" height="2000" preserveAspectRatio="xMidYMid meet" version="1.0"><defs><g/><clipPath id="b07de380fb"><path d="M 750 0 C 335.785156 0 0 335.785156 0 750 C 0 1164.214844 335.785156 1500 750 1500 C 1164.214844 1500 1500 1164.214844 1500 750 C 1500 335.785156 1164.214844 0 750 0 Z M 750 0 " clip-rule="nonzero"/></clipPath><clipPath id="a63db848c4"><path d="M 0 0 L 1500 0 L 1500 1500 L 0 1500 Z M 0 0 " clip-rule="nonzero"/></clipPath><clipPath id="535603fa73"><path d="M 750 0 C 335.785156 0 0 335.785156 0 750 C 0 1164.214844 335.785156 1500 750 1500 C 1164.214844 1500 1500 1164.214844 1500 750 C 1500 335.785156 1164.214844 0 750 0 Z M 750 0 " clip-rule="nonzero"/></clipPath><clipPath id="d857cfae57"><rect x="0" width="1500" y="0" height="1500"/></clipPath></defs><g clip-path="url(#b07de380fb)"><g transform="matrix(1, 0, 0, 1, 0, 0.000000000000112861)"><g clip-path="url(#d857cfae57)"><g clip-path="url(#a63db848c4)"><g clip-path="url(#535603fa73)"><rect x="-330" width="2160" fill="#f2f2f2" height="2159.999904" y="-329.999985" fill-opacity="1"/></g></g></g></g></g><g fill="#222124" fill-opacity="1"><g transform="translate(116.419703, 1256.249872)"><g><path d="M 577.371094 -710.609375 C 581.289062 -676.648438 582.59375 -647.910156 582.59375 -616.558594 C 582.59375 -398.410156 553.855469 -211.617188 351.386719 -87.519531 C 314.808594 -62.699219 270.398438 -41.800781 235.128906 -30.042969 L 330.484375 48.332031 C 663.582031 -117.5625 694.933594 -356.609375 694.933594 -710.609375 Z M 1152.128906 -944.429688 C 1132.535156 -940.511719 1085.507812 -936.59375 1060.6875 -936.59375 L 310.890625 -936.59375 C 262.558594 -936.59375 207.695312 -941.820312 161.976562 -947.042969 L 161.976562 -829.480469 C 214.226562 -834.703125 262.558594 -837.316406 310.890625 -837.316406 L 1054.15625 -837.316406 C 1012.355469 -756.328125 889.566406 -615.25 769.390625 -544.714844 L 855.605469 -475.480469 C 1004.519531 -578.675781 1128.613281 -747.183594 1180.867188 -836.011719 C 1190.007812 -850.378906 1206.992188 -869.972656 1216.136719 -883.035156 Z M 1152.128906 -944.429688 "/></g></g></g></svg>